<svg width="24" height="24" viewBox="0 0 24 24" fill="none" xmlns="http://www.w3.org/2000/svg">
<g clip-path="url(#clip0_117_24808)">
<path d="M20.9997 3H19.5667C18.6341 3 17.8252 3.64455 17.6171 4.55362L16.6558 8.75228" stroke="#505567" stroke-width="1.5" stroke-linecap="round" stroke-linejoin="round"/>
<path d="M3.03248 9.51022C3.19739 12.0583 3.95639 14.1532 4.52493 15.2927C4.71501 15.6737 5.02522 15.9752 5.43123 16.1035C6.10697 16.317 7.43555 16.5921 9.7957 16.5921C12.1559 16.5921 13.4844 16.317 14.1602 16.1035C14.5662 15.9752 14.8764 15.6737 15.0665 15.2927C15.7078 14.0073 16.5914 11.5065 16.5914 8.51074H4C3.44772 8.51074 2.99681 8.95909 3.03248 9.51022Z" fill="#F2F3F5"/>
<path d="M3.03248 9.51022C3.19739 12.0583 3.95639 14.1532 4.52493 15.2927C4.71501 15.6737 5.02522 15.9752 5.43123 16.1035C6.10697 16.317 7.43555 16.5921 9.7957 16.5921C12.1559 16.5921 13.4844 16.317 14.1602 16.1035C14.5662 15.9752 14.8764 15.6737 15.0665 15.2927C15.7078 14.0073 16.5914 11.5065 16.5914 8.51074H4C3.44772 8.51074 2.99681 8.95909 3.03248 9.51022Z" stroke="#505567" stroke-width="1.5" stroke-linecap="round" stroke-linejoin="round"/>
<path d="M4.83672 21.0013C5.24247 21.0013 5.57139 20.6724 5.57139 20.2667C5.57139 19.8609 5.24247 19.532 4.83672 19.532C4.43097 19.532 4.10205 19.8609 4.10205 20.2667C4.10205 20.6724 4.43097 21.0013 4.83672 21.0013Z" fill="#505567" stroke="#505567" stroke-width="1.5" stroke-linecap="round" stroke-linejoin="round"/>
<path d="M14.3877 21.0013C14.7935 21.0013 15.1224 20.6724 15.1224 20.2667C15.1224 19.8609 14.7935 19.532 14.3877 19.532C13.982 19.532 13.6531 19.8609 13.6531 20.2667C13.6531 20.6724 13.982 21.0013 14.3877 21.0013Z" fill="#505567" stroke="#505567" stroke-width="1.5" stroke-linecap="round" stroke-linejoin="round"/>
</g>
<defs>
<clipPath id="clip0_117_24808">
<rect width="24" height="24" fill="white"/>
</clipPath>
</defs>
</svg>
