<svg width="27" height="20" viewBox="0 0 27 20" fill="none" xmlns="http://www.w3.org/2000/svg">
<g clip-path="url(#clip0_36_36542)">
<path d="M25.9678 19.7328V19.7848H26.0164C26.0271 19.7848 26.0363 19.7823 26.0429 19.7783C26.0491 19.7743 26.0526 19.7672 26.0526 19.7586C26.0526 19.75 26.0491 19.7434 26.0429 19.7393C26.0363 19.7348 26.0271 19.7328 26.0164 19.7328H25.9678ZM26.0168 19.6964C26.0419 19.6964 26.0614 19.702 26.0751 19.7131C26.0889 19.7242 26.0955 19.7393 26.0955 19.7586C26.0955 19.7747 26.0904 19.7879 26.0792 19.7985C26.0684 19.8086 26.0532 19.8152 26.0327 19.8177L26.0971 19.891H26.047L25.9872 19.8182H25.9678V19.891H25.9259V19.6964H26.0168ZM26.0041 19.9581C26.0271 19.9581 26.0485 19.9536 26.068 19.945C26.0879 19.9364 26.1052 19.9248 26.1201 19.9101C26.1349 19.8955 26.1467 19.8783 26.1553 19.8581C26.1635 19.8384 26.1681 19.8172 26.1681 19.7944C26.1681 19.7717 26.1635 19.7505 26.1553 19.7308C26.1467 19.7111 26.1349 19.6934 26.1201 19.6787C26.1052 19.6641 26.0879 19.6525 26.068 19.6439C26.0485 19.6358 26.0271 19.6317 26.0041 19.6317C25.9811 19.6317 25.9591 19.6358 25.9392 19.6439C25.9187 19.6525 25.9009 19.6641 25.8861 19.6787C25.8712 19.6934 25.8595 19.7111 25.8513 19.7308C25.8426 19.7505 25.8385 19.7717 25.8385 19.7944C25.8385 19.8172 25.8426 19.8384 25.8513 19.8581C25.8595 19.8783 25.8712 19.8955 25.8861 19.9101C25.9009 19.9248 25.9187 19.9364 25.9392 19.945C25.9591 19.9536 25.9811 19.9581 26.0041 19.9581ZM26.0041 19.5848C26.0343 19.5848 26.0618 19.5903 26.0884 19.6014C26.1145 19.612 26.137 19.6272 26.1568 19.6464C26.1763 19.6651 26.1917 19.6873 26.2029 19.7131C26.2141 19.7383 26.2197 19.7657 26.2197 19.7944C26.2197 19.8233 26.2141 19.8505 26.2029 19.8758C26.1917 19.901 26.1763 19.9233 26.1568 19.9425C26.137 19.9612 26.1145 19.9763 26.0884 19.9874C26.0618 19.9986 26.0343 20.0041 26.0041 20.0041C25.9734 20.0041 25.9453 19.9986 25.9187 19.9874C25.8922 19.9763 25.8692 19.9612 25.8497 19.9425C25.8303 19.9233 25.815 19.901 25.8038 19.8758C25.7925 19.8505 25.7869 19.8233 25.7869 19.7944C25.7869 19.7657 25.7925 19.7383 25.8038 19.7131C25.815 19.6873 25.8303 19.6651 25.8497 19.6464C25.8692 19.6272 25.8922 19.612 25.9187 19.6014C25.9453 19.5903 25.9734 19.5848 26.0041 19.5848ZM6.09479 18.8355C6.09479 18.4647 6.34058 18.16 6.74223 18.16C7.126 18.16 7.38508 18.4516 7.38508 18.8355C7.38508 19.2195 7.126 19.511 6.74223 19.511C6.34058 19.511 6.09479 19.2063 6.09479 18.8355ZM7.8225 18.8355V17.7806H7.3585V18.0367C7.21133 17.8468 6.98802 17.7276 6.68449 17.7276C6.0861 17.7276 5.617 18.1913 5.617 18.8355C5.617 19.4802 6.0861 19.9435 6.68449 19.9435C6.98802 19.9435 7.21133 19.8243 7.3585 19.6343V19.8904H7.8225V18.8355ZM23.5022 18.8355C23.5022 18.4647 23.748 18.16 24.1496 18.16C24.5339 18.16 24.7925 18.4516 24.7925 18.8355C24.7925 19.2195 24.5339 19.511 24.1496 19.511C23.748 19.511 23.5022 19.2063 23.5022 18.8355ZM25.2305 18.8355V16.9333H24.7659V18.0367C24.6187 17.8468 24.3955 17.7276 24.0919 17.7276C23.4935 17.7276 23.0244 18.1913 23.0244 18.8355C23.0244 19.4802 23.4935 19.9435 24.0919 19.9435C24.3955 19.9435 24.6187 19.8243 24.7659 19.6343V19.8904H25.2305V18.8355ZM13.5821 18.1383C13.881 18.1383 14.0731 18.3237 14.1222 18.6501H13.0148C13.0644 18.3454 13.2514 18.1383 13.5821 18.1383ZM13.5913 17.7276C12.9658 17.7276 12.5284 18.1777 12.5284 18.8355C12.5284 19.5065 12.9837 19.9435 13.6224 19.9435C13.9439 19.9435 14.2382 19.8642 14.4973 19.648L14.2699 19.3079C14.091 19.4489 13.8631 19.5287 13.649 19.5287C13.35 19.5287 13.0777 19.3918 13.0108 19.0118H14.5954C14.6 18.9547 14.6046 18.8972 14.6046 18.8355C14.6 18.1777 14.1891 17.7276 13.5913 17.7276ZM19.1939 18.8355C19.1939 18.4647 19.4397 18.16 19.8414 18.16C20.2251 18.16 20.4842 18.4516 20.4842 18.8355C20.4842 19.2195 20.2251 19.511 19.8414 19.511C19.4397 19.511 19.1939 19.2063 19.1939 18.8355ZM20.9216 18.8355V17.7806H20.4576V18.0367C20.3099 17.8468 20.0872 17.7276 19.7836 17.7276C19.1852 17.7276 18.7161 18.1913 18.7161 18.8355C18.7161 19.4802 19.1852 19.9435 19.7836 19.9435C20.0872 19.9435 20.3099 19.8243 20.4576 19.6343V19.8904H20.9216V18.8355ZM16.5735 18.8355C16.5735 19.4757 17.0242 19.9435 17.712 19.9435C18.0334 19.9435 18.2476 19.8727 18.4795 19.6919L18.2567 19.321C18.0825 19.4448 17.8996 19.511 17.6982 19.511C17.3277 19.5065 17.0554 19.2417 17.0554 18.8355C17.0554 18.4293 17.3277 18.1646 17.6982 18.16C17.8996 18.16 18.0825 18.2262 18.2567 18.35L18.4795 17.9792C18.2476 17.7983 18.0334 17.7276 17.712 17.7276C17.0242 17.7276 16.5735 18.1954 16.5735 18.8355ZM22.5558 17.7276C22.288 17.7276 22.1138 17.8513 21.9932 18.0367V17.7806H21.5333V19.8904H21.9978V18.7077C21.9978 18.3586 22.1495 18.1646 22.4531 18.1646C22.5471 18.1646 22.6453 18.1777 22.7434 18.2177L22.8864 17.7851C22.7837 17.7453 22.6498 17.7276 22.5558 17.7276ZM10.1174 17.9483C9.89408 17.8028 9.5865 17.7276 9.24716 17.7276C8.70651 17.7276 8.35855 17.9837 8.35855 18.403C8.35855 18.7471 8.61764 18.9593 9.09494 19.0255L9.31413 19.0563C9.56861 19.0917 9.68868 19.1579 9.68868 19.2771C9.68868 19.4403 9.51905 19.5333 9.20225 19.5333C8.88079 19.5333 8.64876 19.4317 8.49245 19.3124L8.27372 19.6697C8.52822 19.855 8.84959 19.9435 9.1976 19.9435C9.81388 19.9435 10.1711 19.6565 10.1711 19.2549C10.1711 18.884 9.89007 18.69 9.42553 18.6238L9.20682 18.5925C9.00599 18.5663 8.84502 18.5268 8.84502 18.3853C8.84502 18.2307 8.99677 18.1383 9.25125 18.1383C9.52362 18.1383 9.78733 18.2399 9.91662 18.3192L10.1174 17.9483ZM16.1044 17.7276C15.8366 17.7276 15.6624 17.8513 15.5422 18.0367V17.7806H15.0823V19.8904H15.5463V18.7077C15.5463 18.3586 15.6982 18.1646 16.0016 18.1646C16.0957 18.1646 16.1938 18.1777 16.2919 18.2177L16.435 17.7851C16.3323 17.7453 16.1984 17.7276 16.1044 17.7276ZM12.1446 17.7806H11.3858V17.1405H10.9167V17.7806H10.4838V18.2H10.9167V19.1624C10.9167 19.652 11.1088 19.9435 11.6576 19.9435C11.8589 19.9435 12.0909 19.8819 12.2381 19.7803L12.1042 19.3872C11.9657 19.4666 11.814 19.5065 11.6934 19.5065C11.4614 19.5065 11.3858 19.365 11.3858 19.1533V18.2H12.1446V17.7806ZM5.20666 19.8904V18.5663C5.20666 18.0676 4.88524 17.7321 4.36707 17.7276C4.0947 17.723 3.81365 17.8069 3.61692 18.103C3.46975 17.869 3.23775 17.7276 2.91173 17.7276C2.68382 17.7276 2.46102 17.7937 2.28677 18.0408V17.7806H1.82227V19.8904H2.29086V18.7208C2.29086 18.3546 2.49628 18.16 2.81361 18.16C3.12175 18.16 3.27761 18.3586 3.27761 18.7163V19.8904H3.74671V18.7208C3.74671 18.3546 3.96082 18.16 4.26896 18.16C4.58578 18.16 4.73755 18.3586 4.73755 18.7163V19.8904H5.20666Z" fill="#9A9C9E"/>
<path d="M26.2552 12.8733V12.5652H26.174L26.08 12.7769L25.9865 12.5652H25.9047V12.8733H25.9625V12.641L26.0503 12.8415H26.1101L26.198 12.6404V12.8733H26.2552ZM25.7396 12.8733V12.6177H25.8439V12.5656H25.5781V12.6177H25.6824V12.8733H25.7396Z" fill="#F79410"/>
<path d="M17.0147 14.1992H9.98242V1.70386H17.0147V14.1992Z" fill="#FF5F00"/>
<path d="M10.434 7.95038C10.434 5.41568 11.6343 3.15781 13.5035 1.70275C12.1367 0.638735 10.4114 0.00366211 8.5366 0.00366211C4.09799 0.00366211 0.5 3.56148 0.5 7.95038C0.5 12.3393 4.09799 15.8972 8.5366 15.8972C10.4114 15.8972 12.1367 15.2621 13.5035 14.1981C11.6343 12.743 10.434 10.4852 10.434 7.95038Z" fill="#EB001B"/>
<path d="M26.5001 7.95038C26.5001 12.3393 22.9022 15.8972 18.4636 15.8972C16.5887 15.8972 14.8635 15.2621 13.4961 14.1981C15.3658 12.743 16.5662 10.4852 16.5662 7.95038C16.5662 5.41568 15.3658 3.15781 13.4961 1.70275C14.8635 0.638735 16.5887 0.00366211 18.4636 0.00366211C22.9022 0.00366211 26.5001 3.56148 26.5001 7.95038Z" fill="#F79E1B"/>
</g>
<defs>
<clipPath id="clip0_36_36542">
<rect width="26" height="20" fill="white" transform="translate(0.5 0.00366211)"/>
</clipPath>
</defs>
</svg>
