<svg width="28" height="20" viewBox="0 0 28 20" fill="none" xmlns="http://www.w3.org/2000/svg">
<g clip-path="url(#clip0_36_36570)">
<path fill-rule="evenodd" clip-rule="evenodd" d="M17.7805 19.4437C23.1492 19.4437 27.5005 15.0923 27.5005 9.72366C27.5005 4.35498 23.1492 0.00366211 17.7805 0.00366211C12.4119 0.00366211 8.06055 4.35498 8.06055 9.72366C8.06055 15.0923 12.4119 19.4437 17.7805 19.4437ZM17.7805 13.5037C19.8682 13.5037 21.5605 11.8113 21.5605 9.72366C21.5605 7.63602 19.8682 5.94366 17.7805 5.94366C15.6929 5.94366 14.0005 7.63602 14.0005 9.72366C14.0005 11.8113 15.6929 13.5037 17.7805 13.5037Z" fill="#8A42F9"/>
<path d="M8.06 3.2439H0.5L4.53161 16.2039H8.06V3.2439Z" fill="#8A42F9"/>
</g>
<defs>
<clipPath id="clip0_36_36570">
<rect width="27" height="20" fill="white" transform="translate(0.5 0.00366211)"/>
</clipPath>
</defs>
</svg>
