<svg width="24" height="24" viewBox="0 0 24 24" fill="none" xmlns="http://www.w3.org/2000/svg">
<rect x="1" y="1" width="22" height="22" rx="11" stroke="#E2E4EB" stroke-width="2"/>
<path d="M7.95964 14.6262C7.56912 15.0167 7.56912 15.6499 7.95964 16.0404C8.35017 16.4309 8.98333 16.4309 9.37385 16.0404L7.95964 14.6262ZM12.7072 12.7071C13.0977 12.3165 13.0977 11.6834 12.7072 11.2929C12.3167 10.9023 11.6835 10.9023 11.293 11.2929L12.7072 12.7071ZM11.293 11.2929C10.9025 11.6834 10.9025 12.3165 11.293 12.7071C11.6835 13.0976 12.3167 13.0976 12.7072 12.7071L11.293 11.2929ZM16.0405 9.37373C16.431 8.98321 16.431 8.35004 16.0405 7.95952C15.65 7.56899 15.0168 7.56899 14.6263 7.95952L16.0405 9.37373ZM12.7072 11.2929C12.3167 10.9023 11.6835 10.9023 11.293 11.2929C10.9025 11.6834 10.9025 12.3165 11.293 12.7071L12.7072 11.2929ZM14.6263 16.0404C15.0168 16.4309 15.65 16.4309 16.0405 16.0404C16.431 15.6499 16.431 15.0167 16.0405 14.6262L14.6263 16.0404ZM11.293 12.7071C11.6835 13.0976 12.3167 13.0976 12.7072 12.7071C13.0977 12.3165 13.0977 11.6834 12.7072 11.2929L11.293 12.7071ZM9.37385 7.95952C8.98333 7.56899 8.35017 7.56899 7.95964 7.95952C7.56912 8.35004 7.56912 8.98321 7.95964 9.37373L9.37385 7.95952ZM9.37385 16.0404L12.7072 12.7071L11.293 11.2929L7.95964 14.6262L9.37385 16.0404ZM12.7072 12.7071L16.0405 9.37373L14.6263 7.95952L11.293 11.2929L12.7072 12.7071ZM11.293 12.7071L14.6263 16.0404L16.0405 14.6262L12.7072 11.2929L11.293 12.7071ZM12.7072 11.2929L9.37385 7.95952L7.95964 9.37373L11.293 12.7071L12.7072 11.2929Z" fill="#E2E4EB"/>
</svg>
