<svg width="40" height="40" viewBox="0 0 40 40" fill="none" xmlns="http://www.w3.org/2000/svg">
<g clip-path="url(#clip0_36_34702)">
<path d="M28.333 34.285C26.953 32.6184 25.143 31.785 23.333 31.785C25.143 31.785 26.953 30.9517 28.333 29.285" stroke="#353949" stroke-width="2" stroke-linecap="round" stroke-linejoin="round"/>
<path d="M16.667 26.5567V36.6667H23.3337V26.5551" stroke="#353949" stroke-width="2" stroke-linecap="round" stroke-linejoin="round"/>
<path d="M23.3337 31.7833H16.667" stroke="#353949" stroke-width="2" stroke-linecap="round" stroke-linejoin="round"/>
<path d="M32.4016 17.4283C32.6982 17.2366 32.9832 17.0183 33.2432 16.7583L36.6666 13.3333C35.2566 11.9233 33.3682 11.28 31.5232 11.4066C31.6482 9.56164 31.0066 7.67331 29.5966 6.26331L26.1732 9.68664C24.5416 11.3166 24.2916 13.7833 25.3832 15.6933" stroke="#353949" stroke-width="2" stroke-linecap="round" stroke-linejoin="round"/>
<path fill-rule="evenodd" clip-rule="evenodd" d="M32.6518 20.56L24.3318 26.1066C23.7835 26.4716 23.1401 26.6666 22.4818 26.6666H17.5151C16.8568 26.6666 16.2134 26.4716 15.6668 26.1066L7.34678 20.56C6.52012 20.0083 6.37012 18.8716 6.99012 18.0933C8.30845 16.435 10.3418 15.3666 12.6284 15.3666C13.3268 15.3666 14.0084 15.5066 14.6551 15.6983C15.9818 14.2483 17.8868 13.34 19.9984 13.34C22.1101 13.34 24.0151 14.2483 25.3601 15.6983C26.0068 15.5066 26.6701 15.3666 27.3868 15.3666C29.6584 15.3666 31.6901 16.435 33.0101 18.0933C33.6268 18.8716 33.4785 20.0083 32.6518 20.56V20.56Z" fill="#E2195B" fill-opacity="0.1" stroke="#353949" stroke-width="2" stroke-linecap="round" stroke-linejoin="round"/>
<path d="M23.0001 13.9967C24.2218 13.085 25.0234 11.6417 25.0234 9.99999V5.15833C23.0284 5.15833 21.2401 6.03833 20.0234 7.43333C18.8068 6.03999 17.0184 5.15833 15.0234 5.15833V9.99999C15.0234 11.6317 15.8168 13.0667 17.0268 13.98" stroke="#353949" stroke-width="2" stroke-linecap="round" stroke-linejoin="round"/>
<path d="M7.59801 17.4283C7.30134 17.2366 7.01634 17.0183 6.75634 16.7583L3.33301 13.3333C4.74301 11.9233 6.63134 11.28 8.47634 11.4066C8.35134 9.56164 8.99301 7.67331 10.403 6.26331L13.8263 9.68664C15.458 11.3166 15.708 13.7833 14.6163 15.6933" stroke="#353949" stroke-width="2" stroke-linecap="round" stroke-linejoin="round"/>
</g>
<defs>
<clipPath id="clip0_36_34702">
<rect width="40" height="40" fill="white"/>
</clipPath>
</defs>
</svg>
