<svg width="40" height="40" viewBox="0 0 40 40" fill="none" xmlns="http://www.w3.org/2000/svg">
<g clip-path="url(#clip0_36_34698)">
<path fill-rule="evenodd" clip-rule="evenodd" d="M9.39417 23.2515L3.75 29.0292L8.26389 31.7376L10.9722 36.2515L18.0121 28.8577" fill="#E2195B" fill-opacity="0.1"/>
<path d="M9.39417 23.2515L3.75 29.0292L8.26389 31.7376L10.9722 36.2515L18.0121 28.8577" stroke="#353949" stroke-width="2" stroke-linecap="round" stroke-linejoin="round"/>
<path fill-rule="evenodd" clip-rule="evenodd" d="M21.9873 28.8577L29.0272 36.2515L31.7355 31.7376L36.2494 29.0292L30.6052 23.2515" fill="#E2195B" fill-opacity="0.1"/>
<path d="M21.9873 28.8577L29.0272 36.2515L31.7355 31.7376L36.2494 29.0292L30.6052 23.2515" stroke="#353949" stroke-width="2" stroke-linecap="round" stroke-linejoin="round"/>
<path d="M28.9373 7.45184C33.873 12.3876 33.873 20.3901 28.9373 25.3259C24.0015 30.2617 15.999 30.2617 11.0632 25.3259C6.12738 20.3901 6.12738 12.3876 11.0632 7.45184C15.999 2.51605 24.0015 2.51605 28.9373 7.45184" stroke="#353949" stroke-width="2" stroke-linecap="round" stroke-linejoin="round"/>
<path fill-rule="evenodd" clip-rule="evenodd" d="M19.9986 21.0532L23.2432 22.7577C23.8751 23.0899 24.6136 22.5536 24.4926 21.8495L23.8733 18.2366L26.4986 15.6799C27.0096 15.1816 26.7279 14.3131 26.022 14.2102L22.3946 13.683L20.7732 10.395C20.4572 9.75406 19.5454 9.75406 19.2295 10.395L17.6081 13.683L13.9789 14.212C13.2729 14.3149 12.9913 15.1834 13.5022 15.6817L16.1275 18.2384L15.5082 21.8513C15.3872 22.5555 16.1257 23.0917 16.7576 22.7595L20.0022 21.055H19.9986V21.0532Z" fill="#E2195B" fill-opacity="0.1" stroke="#353949" stroke-width="2" stroke-linecap="round" stroke-linejoin="round"/>
</g>
<defs>
<clipPath id="clip0_36_34698">
<rect width="40" height="40" fill="white"/>
</clipPath>
</defs>
</svg>
