<svg width="20" height="20" viewBox="0 0 20 20" fill="none" xmlns="http://www.w3.org/2000/svg">
<path fill-rule="evenodd" clip-rule="evenodd" d="M11.5407 7.0975L9.99984 4.16833L8.459 7.0975C8.35015 7.31155 8.1926 7.49708 7.999 7.63917C7.80447 7.78198 7.57936 7.87756 7.3415 7.91833L4.1665 8.54083L6.38317 11.1917C6.68631 11.5239 6.82936 11.9719 6.77484 12.4183L6.35317 15.835L9.2765 14.4183C9.50202 14.3091 9.74926 14.2521 9.99984 14.2517C10.2349 14.2524 10.4664 14.3095 10.6748 14.4183L13.6665 15.7475L13.2448 12.3717C13.1915 11.9262 13.3348 11.4796 13.6373 11.1483L15.8332 8.54083L12.6582 7.91833C12.42 7.87768 12.1946 7.7821 11.9998 7.63917C11.8065 7.49698 11.6493 7.31146 11.5407 7.0975Z" fill="#0093A2" stroke="#0093A2" stroke-width="1.5" stroke-linecap="round" stroke-linejoin="round"/>
</svg>
