<svg width="33" height="32" viewBox="0 0 33 32" fill="none" xmlns="http://www.w3.org/2000/svg">
<rect x="0.5" y="0.00366211" width="32" height="32" rx="16" fill="#FF0000"/>
<path fill-rule="evenodd" clip-rule="evenodd" d="M22.7602 10.7446C23.4456 10.9292 23.9859 11.4695 24.1704 12.1549C24.5131 13.4069 24.4999 16.0165 24.4999 16.0165C24.4999 16.0165 24.4999 18.6128 24.1704 19.8649C23.9859 20.5502 23.4456 21.0906 22.7602 21.2751C21.5082 21.6046 16.5 21.6046 16.5 21.6046C16.5 21.6046 11.5049 21.6046 10.2397 21.2619C9.55436 21.0774 9.014 20.537 8.82949 19.8517C8.5 18.6128 8.5 16.0033 8.5 16.0033C8.5 16.0033 8.5 13.4069 8.82949 12.1549C9.014 11.4695 9.56754 10.916 10.2397 10.7315C11.4918 10.402 16.5 10.402 16.5 10.402C16.5 10.402 21.5082 10.402 22.7602 10.7446ZM19.071 16.0038L14.9062 18.4024V13.6051L19.071 16.0038Z" fill="white"/>
</svg>
