<svg width="50" height="14" viewBox="0 0 50 14" fill="none" xmlns="http://www.w3.org/2000/svg">
<g clip-path="url(#clip0_36_36549)">
<path fill-rule="evenodd" clip-rule="evenodd" d="M13.7011 0.418701V0.42463C13.6951 0.42463 11.8031 0.418701 11.2986 2.20311C10.8361 3.83932 9.53273 8.35667 9.49674 8.48119H9.13636C9.13636 8.48119 7.80295 3.86303 7.33446 2.19719C6.82993 0.412773 4.93195 0.418701 4.93195 0.418701H0.607422V13.9945H4.93195V5.932H5.11213H5.29232L7.81496 13.9945H10.8181L13.3407 5.93792H13.7011V13.9945H18.0257V0.418701H13.7011Z" fill="#4DB45E"/>
<path fill-rule="evenodd" clip-rule="evenodd" d="M29.4968 0.418701C29.4968 0.418701 28.2295 0.531338 27.6348 1.84149L24.5717 8.48119H24.2113V0.418701H19.8867V13.9945H23.971C23.971 13.9945 25.2984 13.8759 25.893 12.5717L28.8961 5.932H29.2565V13.9945H33.5811V0.418701H29.4968Z" fill="#4DB45E"/>
<path fill-rule="evenodd" clip-rule="evenodd" d="M35.5039 6.58472V13.995H39.8284V9.66741H44.5133C46.5554 9.66741 48.2852 8.38096 48.9279 6.58472H35.5039Z" fill="#4DB45E"/>
<path fill-rule="evenodd" clip-rule="evenodd" d="M44.5126 0.418701H34.8965C35.377 3.00343 37.3411 5.07832 39.8817 5.75415C40.4583 5.90828 41.065 5.99128 41.6896 5.99128H49.1014C49.1674 5.68302 49.1974 5.36882 49.1974 5.04276C49.1974 2.48767 47.1012 0.418701 44.5126 0.418701Z" fill="url(#paint0_linear_36_36549)"/>
</g>
<defs>
<linearGradient id="paint0_linear_36_36549" x1="34.8976" y1="3.20499" x2="49.1974" y2="3.20499" gradientUnits="userSpaceOnUse">
<stop offset="0.3" stop-color="#00B4E6"/>
<stop offset="1" stop-color="#088CCB"/>
</linearGradient>
<clipPath id="clip0_36_36549">
<rect width="49" height="14" fill="white" transform="translate(0.5 0.00366211)"/>
</clipPath>
</defs>
</svg>
