<svg width="47" height="20" viewBox="0 0 47 20" fill="none" xmlns="http://www.w3.org/2000/svg">
<g clip-path="url(#clip0_36_36536)">
<path d="M20.4092 17.7698H16.6875L19.0153 2.75073H22.7368L20.4092 17.7698Z" fill="#00579F"/>
<path d="M33.9003 3.11769C33.1662 2.81381 32.0019 2.47827 30.5622 2.47827C26.887 2.47827 24.2989 4.52332 24.2831 7.44711C24.2525 9.60429 26.136 10.8025 27.5448 11.5217C28.9846 12.2567 29.4741 12.7364 29.4741 13.3916C29.4594 14.3977 28.3106 14.8615 27.2391 14.8615C25.7532 14.8615 24.9571 14.6224 23.7472 14.0626L23.2571 13.8226L22.7363 17.1941C23.6093 17.609 25.2174 17.9773 26.887 17.9934C30.792 17.9934 33.3343 15.9801 33.3644 12.8642C33.3793 11.1545 32.3848 9.84447 30.2405 8.77395C28.9388 8.08675 28.1416 7.62337 28.1416 6.92025C28.157 6.28104 28.8159 5.62633 30.2853 5.62633C31.4952 5.59425 32.3841 5.89772 33.0575 6.2014L33.3941 6.36089L33.9003 3.11769Z" fill="#00579F"/>
<path d="M38.8459 12.4491C39.1524 11.5863 40.3317 8.24687 40.3317 8.24687C40.3163 8.27894 40.6376 7.36811 40.8214 6.80897L41.0815 8.10311C41.0815 8.10311 41.7863 11.6982 41.9393 12.4491C41.3577 12.4491 39.581 12.4491 38.8459 12.4491ZM43.4398 2.75073H40.5611C39.6734 2.75073 38.999 3.02213 38.6159 3.99687L33.0879 17.7696H36.9929C36.9929 17.7696 37.6358 15.9159 37.774 15.5167C38.2024 15.5167 42.0012 15.5167 42.5523 15.5167C42.6591 16.0439 42.9964 17.7696 42.9964 17.7696H46.4422L43.4398 2.75073Z" fill="#00579F"/>
<path d="M13.5791 2.75073L9.93432 12.9923L9.53604 10.9152C8.86222 8.51848 6.74894 5.9145 4.39062 4.61973L7.72906 17.7539H11.6646L17.5144 2.75073H13.5791Z" fill="#00579F"/>
<path d="M6.54903 2.75073H0.561257L0.5 3.05419C5.17084 4.30055 8.26426 7.30483 9.53517 10.9159L8.23352 4.01323C8.01921 3.05399 7.36064 2.78237 6.54903 2.75073Z" fill="#FAA61A"/>
</g>
<defs>
<clipPath id="clip0_36_36536">
<rect width="46" height="20" fill="white" transform="translate(0.5 0.00366211)"/>
</clipPath>
</defs>
</svg>
