<svg width="40" height="40" viewBox="0 0 40 40" fill="none" xmlns="http://www.w3.org/2000/svg">
<g clip-path="url(#clip0_36_34694)">
<path fill-rule="evenodd" clip-rule="evenodd" d="M21.0112 5.45172L23.4279 4.27005C24.5429 3.72505 25.8912 4.16172 26.4729 5.26005L27.7345 7.63672C28.0679 8.26339 28.6712 8.70172 29.3712 8.82505L32.0212 9.29005C33.2445 9.50505 34.0762 10.6501 33.9029 11.8801L33.5262 14.5434C33.4262 15.2467 33.6579 15.9567 34.1512 16.4667L36.0212 18.4001C36.8845 19.2917 36.8845 20.7084 36.0212 21.6017L34.1512 23.5351C33.6579 24.0451 33.4262 24.7551 33.5262 25.4584L33.9029 28.1217C34.0762 29.3517 33.2445 30.4967 32.0212 30.7117L29.3712 31.1767C28.6712 31.3001 28.0679 31.7384 27.7345 32.3651L26.4729 34.7417C25.8912 35.8384 24.5445 36.2767 23.4279 35.7317L21.0112 34.5501C20.3729 34.2384 19.6279 34.2384 18.9895 34.5501L16.5729 35.7317C15.4579 36.2767 14.1095 35.8401 13.5279 34.7417L12.2662 32.3634C11.9329 31.7367 11.3295 31.2984 10.6295 31.1751L7.97953 30.7101C6.7562 30.4951 5.92453 29.3501 6.09786 28.1201L6.47453 25.4567C6.57453 24.7534 6.34286 24.0434 5.84953 23.5334L3.97953 21.6001C3.1162 20.7084 3.1162 19.2917 3.97953 18.3984L5.84953 16.4651C6.34286 15.9551 6.57453 15.2451 6.47453 14.5417L6.09953 11.8784C5.92453 10.6501 6.75786 9.50339 7.9812 9.29005L10.6312 8.82505C11.3295 8.70172 11.9329 8.26339 12.2662 7.63672L13.5279 5.26005C14.1095 4.16339 15.4562 3.72505 16.5729 4.27005L18.9895 5.45172C19.6262 5.76339 20.3729 5.76339 21.0112 5.45172Z" fill="#E2195B" fill-opacity="0.1" stroke="#353949" stroke-width="2" stroke-linecap="round" stroke-linejoin="round"/>
<path d="M15 25L25 15" stroke="#353949" stroke-width="2" stroke-linecap="round" stroke-linejoin="round"/>
<path d="M15.4147 15C15.1847 15 14.998 15.1867 14.9997 15.4167C14.9997 15.6467 15.1863 15.8334 15.4163 15.8334C15.6463 15.8334 15.833 15.6467 15.833 15.4167C15.833 15.1867 15.6463 15 15.4147 15" stroke="#353949" stroke-width="2" stroke-linecap="round" stroke-linejoin="round"/>
<path d="M24.5817 24.1667C24.3517 24.1667 24.165 24.3533 24.1667 24.5833C24.1667 24.8133 24.3533 25 24.5833 25C24.8133 25 25 24.8133 25 24.5833C25 24.3533 24.8133 24.1667 24.5817 24.1667" stroke="#353949" stroke-width="2" stroke-linecap="round" stroke-linejoin="round"/>
</g>
<defs>
<clipPath id="clip0_36_34694">
<rect width="40" height="40" fill="white"/>
</clipPath>
</defs>
</svg>
