<svg width="40" height="40" viewBox="0 0 40 40" fill="none" xmlns="http://www.w3.org/2000/svg">
<g clip-path="url(#clip0_36_34706)">
<path fill-rule="evenodd" clip-rule="evenodd" d="M14.2864 8.57149C10.0785 8.57149 6.66732 11.9826 6.66732 16.1905V27.6191C6.66732 31.827 10.0785 35.2381 14.2864 35.2381H25.7149C29.9228 35.2381 33.334 31.827 33.334 27.6191V16.1905C33.334 11.9826 29.9228 8.57149 25.7149 8.57149M14.2864 8.57149L25.7149 8.57149ZM14.2864 8.57149V10.4762ZM14.2864 8.57149V4.76196ZM25.7149 8.57149V10.4762ZM25.7149 8.57149V4.76196Z" fill="#E2195B" fill-opacity="0.1"/>
<path d="M14.2864 9.57149C14.8387 9.57149 15.2864 9.12377 15.2864 8.57149C15.2864 8.0192 14.8387 7.57149 14.2864 7.57149V9.57149ZM25.7149 7.57149C25.1627 7.57149 24.7149 8.0192 24.7149 8.57149C24.7149 9.12377 25.1627 9.57149 25.7149 9.57149V7.57149ZM14.2864 7.57149C13.7341 7.57149 13.2864 8.0192 13.2864 8.57149C13.2864 9.12377 13.7341 9.57149 14.2864 9.57149V7.57149ZM25.7149 9.57149C26.2672 9.57149 26.7149 9.12377 26.7149 8.57149C26.7149 8.0192 26.2672 7.57149 25.7149 7.57149V9.57149ZM15.2864 8.57149C15.2864 8.0192 14.8387 7.57149 14.2864 7.57149C13.7341 7.57149 13.2864 8.0192 13.2864 8.57149L15.2864 8.57149ZM13.2864 10.4762C13.2864 11.0285 13.7341 11.4762 14.2864 11.4762C14.8387 11.4762 15.2864 11.0285 15.2864 10.4762H13.2864ZM13.2864 8.57149C13.2864 9.12377 13.7341 9.57149 14.2864 9.57149C14.8387 9.57149 15.2864 9.12377 15.2864 8.57149L13.2864 8.57149ZM15.2864 4.76196C15.2864 4.20968 14.8387 3.76196 14.2864 3.76196C13.7341 3.76196 13.2864 4.20968 13.2864 4.76196H15.2864ZM26.7149 8.57149C26.7149 8.0192 26.2672 7.57149 25.7149 7.57149C25.1627 7.57149 24.7149 8.0192 24.7149 8.57149H26.7149ZM24.7149 10.4762C24.7149 11.0285 25.1627 11.4762 25.7149 11.4762C26.2672 11.4762 26.7149 11.0285 26.7149 10.4762H24.7149ZM24.7149 8.57149C24.7149 9.12377 25.1627 9.57149 25.7149 9.57149C26.2672 9.57149 26.7149 9.12377 26.7149 8.57149H24.7149ZM26.7149 4.76196C26.7149 4.20968 26.2672 3.76196 25.7149 3.76196C25.1627 3.76196 24.7149 4.20968 24.7149 4.76196L26.7149 4.76196ZM14.2864 7.57149C9.5262 7.57149 5.66732 11.4304 5.66732 16.1905H7.66732C7.66732 12.5349 10.6308 9.57149 14.2864 9.57149V7.57149ZM5.66732 16.1905V27.6191H7.66732V16.1905H5.66732ZM5.66732 27.6191C5.66732 32.3793 9.5262 36.2381 14.2864 36.2381V34.2381C10.6308 34.2381 7.66732 31.2747 7.66732 27.6191H5.66732ZM14.2864 36.2381H25.7149V34.2381H14.2864V36.2381ZM25.7149 36.2381C30.4751 36.2381 34.334 32.3793 34.334 27.6191H32.334C32.334 31.2747 29.3705 34.2381 25.7149 34.2381V36.2381ZM34.334 27.6191V16.1905H32.334V27.6191H34.334ZM34.334 16.1905C34.334 11.4304 30.4751 7.57149 25.7149 7.57149V9.57149C29.3705 9.57149 32.334 12.5349 32.334 16.1905H34.334ZM14.2864 9.57149H25.7149V7.57149L14.2864 7.57149V9.57149ZM13.2864 8.57149V10.4762H15.2864V8.57149L13.2864 8.57149ZM15.2864 8.57149V4.76196H13.2864V8.57149L15.2864 8.57149ZM24.7149 8.57149V10.4762H26.7149V8.57149H24.7149ZM26.7149 8.57149V4.76196L24.7149 4.76196V8.57149H26.7149Z" fill="#353949"/>
<path fill-rule="evenodd" clip-rule="evenodd" d="M12.3809 21.9049L16.1904 27.6191L27.619 18.0953" fill="#E2195B" fill-opacity="0.1"/>
<path d="M12.3809 21.9049L16.1904 27.6191L27.619 18.0953" stroke="#353949" stroke-width="2" stroke-linecap="round" stroke-linejoin="round"/>
</g>
<defs>
<clipPath id="clip0_36_34706">
<rect width="40" height="40" fill="white"/>
</clipPath>
</defs>
</svg>
