<svg width="40" height="40" viewBox="0 0 40 40" fill="none" xmlns="http://www.w3.org/2000/svg">
<g clip-path="url(#clip0_36_34690)">
<path opacity="0.1" d="M24.9997 25.0001H3.33301V32.5001H8.33301L10.833 30.0001L13.333 32.5001H25.833L29.9997 29.1667L31.6663 31.6667H36.6663V23.3334H33.333H29.9997V16.6667H34.9997L33.333 11.6667H24.9997V25.0001Z" fill="#E2195B"/>
<path d="M31.1731 30.4938C32.2048 31.5255 32.2048 33.1972 31.1731 34.2272C30.1414 35.2588 28.4698 35.2588 27.4398 34.2272C26.4081 33.1955 26.4081 31.5238 27.4398 30.4938C28.4714 29.4622 30.1431 29.4622 31.1731 30.4938" stroke="#353949" stroke-width="2" stroke-linecap="round" stroke-linejoin="round"/>
<path d="M12.8395 30.4932C13.8711 31.5249 13.8711 33.1965 12.8395 34.2265C11.8078 35.2582 10.1361 35.2582 9.10613 34.2265C8.07613 33.1949 8.07447 31.5232 9.10613 30.4932C10.1378 29.4632 11.8078 29.4616 12.8395 30.4932" stroke="#353949" stroke-width="2" stroke-linecap="round" stroke-linejoin="round"/>
<path d="M16.6663 6.66675H23.333C24.253 6.66675 24.9997 7.41341 24.9997 8.33341V25.0001H3.33301" stroke="#353949" stroke-width="2" stroke-linecap="round" stroke-linejoin="round"/>
<path d="M8.33301 32.3601H4.99967C4.07967 32.3601 3.33301 31.6134 3.33301 30.6934V21.6667" stroke="#353949" stroke-width="2" stroke-linecap="round" stroke-linejoin="round"/>
<path d="M25 11.6667H32.205C32.8867 11.6667 33.5 12.0817 33.7517 12.7151L36.4283 19.4051C36.585 19.7984 36.6667 20.2184 36.6667 20.6417V30.5551C36.6667 31.4751 35.92 32.2217 35 32.2217H31.9483" stroke="#353949" stroke-width="2" stroke-linecap="round" stroke-linejoin="round"/>
<path d="M26.6662 32.3665H13.6162" stroke="#353949" stroke-width="2" stroke-linecap="round" stroke-linejoin="round"/>
<path d="M36.6667 23.3334H30V16.6667H35.3333" stroke="#353949" stroke-width="2" stroke-linecap="round" stroke-linejoin="round"/>
<path d="M3.33301 6.66671H11.6663" stroke="#353949" stroke-width="2" stroke-linecap="round" stroke-linejoin="round"/>
<path d="M3.33301 11.6667H8.33301" stroke="#353949" stroke-width="2" stroke-linecap="round" stroke-linejoin="round"/>
<path d="M4.99967 16.6667H3.33301" stroke="#353949" stroke-width="2" stroke-linecap="round" stroke-linejoin="round"/>
</g>
<defs>
<clipPath id="clip0_36_34690">
<rect width="40" height="40" fill="white"/>
</clipPath>
</defs>
</svg>
