<svg width="33" height="32" viewBox="0 0 33 32" fill="none" xmlns="http://www.w3.org/2000/svg">
<rect x="0.5" y="0.00366211" width="32" height="32" rx="16" fill="#5181B8"/>
<path fill-rule="evenodd" clip-rule="evenodd" d="M24.1329 11.6808C24.2442 11.2905 24.1329 11.0037 23.6035 11.0037H21.8531C21.408 11.0037 21.203 11.2514 21.0917 11.5247C21.0917 11.5247 20.2015 13.808 18.9404 15.2912C18.5325 15.7205 18.347 15.857 18.1245 15.857C18.0132 15.857 17.8522 15.7205 17.8522 15.3302V11.6808C17.8522 11.2123 17.723 11.0037 17.3521 11.0037H14.6014C14.3234 11.0037 14.1561 11.221 14.1561 11.4271C14.1561 11.8712 14.7865 11.9735 14.8515 13.2225V15.9352C14.8515 16.53 14.7495 16.6379 14.5269 16.6379C13.9335 16.6379 12.4902 14.3442 11.634 11.7198C11.4662 11.2097 11.2979 11.0037 10.8505 11.0037H9.10014C8.60002 11.0037 8.5 11.2514 8.5 11.5247C8.5 12.0126 9.09351 14.4326 11.2631 17.6331C12.7097 19.8187 14.7475 21.0037 16.6019 21.0037C17.7147 21.0037 17.8522 20.7405 17.8522 20.2872V18.6352C17.8522 18.1089 17.9576 18.0039 18.3098 18.0039C18.5696 18.0039 19.0146 18.1405 20.0532 19.1943C21.24 20.4431 21.4355 21.0037 22.1032 21.0037H23.8536C24.3537 21.0037 24.6038 20.7405 24.4595 20.2212C24.3017 19.7035 23.7351 18.9527 22.9831 18.0625C22.5752 17.555 21.9631 17.0085 21.7778 16.7354C21.5182 16.3841 21.5923 16.228 21.7778 15.9159C21.7778 15.9159 23.9103 12.7543 24.1329 11.6809V11.6808Z" fill="white"/>
</svg>
